<?xml version="1.0" encoding="UTF-8" standalone="no"?>
<svg
   width="76.904999mm"
   height="62.3647mm"
   viewBox="0 0 76.904999 62.3647"
   version="1.1"
   id="svg8"
   inkscape:version="1.1 (c4e8f9ed74, 2021-05-24)"
   sodipodi:docname="variable.svg"
   inkscape:export-filename="/home/antoine/Documents/cours_python_debutant/img/variable.png"
   inkscape:export-xdpi="96"
   inkscape:export-ydpi="96"
   xmlns:inkscape="http://www.inkscape.org/namespaces/inkscape"
   xmlns:sodipodi="http://sodipodi.sourceforge.net/DTD/sodipodi-0.dtd"
   xmlns="http://www.w3.org/2000/svg"
   xmlns:svg="http://www.w3.org/2000/svg"
   xmlns:rdf="http://www.w3.org/1999/02/22-rdf-syntax-ns#"
   xmlns:cc="http://creativecommons.org/ns#"
   xmlns:dc="http://purl.org/dc/elements/1.1/">
  <defs
     id="defs2">
    <marker
       style="overflow:visible"
       id="TriangleOutM"
       refX="0.0"
       refY="0.0"
       orient="auto"
       inkscape:stockid="TriangleOutM"
       inkscape:isstock="true">
      <path
         transform="scale(0.4)"
         style="fill-rule:evenodd;fill:context-stroke;stroke:context-stroke;stroke-width:1.0pt"
         d="M 5.77,0.0 L -2.88,5.0 L -2.88,-5.0 L 5.77,0.0 z "
         id="path9698" />
    </marker>
    <marker
       style="overflow:visible;"
       id="marker9831"
       refX="0.0"
       refY="0.0"
       orient="auto"
       inkscape:stockid="Arrow2Lend"
       inkscape:isstock="true">
      <path
         transform="scale(1.1) rotate(180) translate(1,0)"
         d="M 8.7185878,4.0337352 L -2.2072895,0.016013256 L 8.7185884,-4.0017078 C 6.9730900,-1.6296469 6.9831476,1.6157441 8.7185878,4.0337352 z "
         style="fill-rule:evenodd;fill:context-stroke;stroke-width:0.62500000;stroke-linejoin:round;"
         id="path9829" />
    </marker>
    <marker
       style="overflow:visible;"
       id="Arrow1Mend"
       refX="0.0"
       refY="0.0"
       orient="auto"
       inkscape:stockid="Arrow1Mend"
       inkscape:isstock="true">
      <path
         transform="scale(0.4) rotate(180) translate(10,0)"
         style="fill-rule:evenodd;fill:context-stroke;stroke:context-stroke;stroke-width:1.0pt;"
         d="M 0.0,0.0 L 5.0,-5.0 L -12.5,0.0 L 5.0,5.0 L 0.0,0.0 z "
         id="path9562" />
    </marker>
    <marker
       style="overflow:visible;"
       id="Arrow2Lend"
       refX="0.0"
       refY="0.0"
       orient="auto"
       inkscape:stockid="Arrow2Lend"
       inkscape:isstock="true">
      <path
         transform="scale(1.1) rotate(180) translate(1,0)"
         d="M 8.7185878,4.0337352 L -2.2072895,0.016013256 L 8.7185884,-4.0017078 C 6.9730900,-1.6296469 6.9831476,1.6157441 8.7185878,4.0337352 z "
         style="fill-rule:evenodd;fill:context-stroke;stroke-width:0.62500000;stroke-linejoin:round;"
         id="path9574" />
    </marker>
  </defs>
  <sodipodi:namedview
     id="base"
     pagecolor="#ffffff"
     bordercolor="#666666"
     borderopacity="1.0"
     inkscape:pageopacity="0.0"
     inkscape:pageshadow="2"
     inkscape:zoom="0.35"
     inkscape:cx="-604.28571"
     inkscape:cy="41.428571"
     inkscape:document-units="px"
     inkscape:current-layer="layer1"
     inkscape:document-rotation="0"
     showgrid="false"
     inkscape:pagecheckerboard="0"
     fit-margin-top="0"
     fit-margin-left="0"
     fit-margin-right="0"
     fit-margin-bottom="0"
     inkscape:window-width="1916"
     inkscape:window-height="1036"
     inkscape:window-x="1368"
     inkscape:window-y="20"
     inkscape:window-maximized="1" />
  <metadata
     id="metadata5">
    <rdf:RDF>
      <cc:Work
         rdf:about="">
        <dc:format>image/svg+xml</dc:format>
        <dc:type
           rdf:resource="http://purl.org/dc/dcmitype/StillImage" />
      </cc:Work>
    </rdf:RDF>
  </metadata>
  <g
     inkscape:label="Calque 1"
     inkscape:groupmode="layer"
     id="layer1"
     transform="translate(7.7702195,-33.589809)">
    <g
       id="g854"
       inkscape:export-filename="/home/antoine/Documents/cours_python_debutant/img/variable_assign.png"
       inkscape:export-xdpi="96"
       inkscape:export-ydpi="96">
      <g
         id="g9916"
         transform="rotate(-15,-53.966874,126.28652)">
        <path
           id="rect8624"
           style="fill:#ffcc00;stroke-width:5.55806;stroke-linecap:round"
           d="m 37.488281,322.42188 c -13.85,0 -25,11.14999 -25,25 v 50 c 0,13.85 11.15,25 25,25 H 187.48828 c 25.76524,0 78.72266,-28.33057 78.72266,-50 0,-21.66943 -53.5735,-50 -78.72266,-50 z M 235.3418,359.4668 A 12.953708,12.953708 0 0 1 248.29492,372.42188 12.953708,12.953708 0 0 1 235.3418,385.375 12.953708,12.953708 0 0 1 222.38672,372.42188 12.953708,12.953708 0 0 1 235.3418,359.4668 Z"
           transform="scale(0.26458333)" />
        <rect
           style="fill:#ffffff;stroke-width:1.24782;stroke-linecap:round"
           id="rect8908"
           width="47.625"
           height="21.166666"
           x="5.9498496"
           y="87.953148"
           ry="5.2916665" />
        <text
           xml:space="preserve"
           style="font-size:14.1111px;line-height:1.25;font-family:sans-serif;letter-spacing:0px;word-spacing:0px;stroke-width:0.264583;fill:#0066ff;fill-opacity:1"
           x="9.9488001"
           y="102.74146"
           id="text5594"><tspan
             sodipodi:role="line"
             id="tspan5592"
             style="font-size:14.1111px;stroke-width:0.264583;fill:#0066ff;fill-opacity:1"
             x="9.9488001"
             y="102.74146">result</tspan></text>
      </g>
      <text
         xml:space="preserve"
         style="font-size:50.8px;line-height:1.25;font-family:sans-serif;letter-spacing:0px;word-spacing:0px;stroke-width:0.264583"
         x="41.254311"
         y="70.623207"
         id="text1682"><tspan
           sodipodi:role="line"
           id="tspan1680"
           style="font-size:50.8px;stroke-width:0.264583"
           x="41.254311"
           y="70.623207">5</tspan></text>
      <path
         id="path9918"
         style="fill:#ffcc00;stroke-width:5.55806;stroke-linecap:round"
         d="m 189.80273,231.32422 v 18.48242 a 12.953708,12.953708 0 0 1 0.0723,-0.0273 12.953708,12.953708 0 0 1 15.86328,9.16211 12.953708,12.953708 0 0 1 -9.1582,15.86328 12.953708,12.953708 0 0 1 -6.77735,-0.0723 v 31.17578 c 19.46934,-15.65814 36.90652,-37.92805 33.24219,-51.60351 -2.5872,-9.65556 -16.56136,-17.72244 -33.24219,-22.98047 z"
         transform="scale(0.26458333)" />
    </g>
    <g
       id="g10077"
       inkscape:export-filename="/home/antoine/Documents/cours_python_debutant/img/variable_reassign.png"
       inkscape:export-xdpi="96"
       inkscape:export-ydpi="96"
       transform="matrix(0.50095347,0,0,0.50095347,4.1977718,63.053927)">
      <g
         id="g882"
         transform="translate(-7.7905452,101.60222)">
        <text
           xml:space="preserve"
           style="font-size:50.8px;line-height:1.25;font-family:sans-serif;letter-spacing:0px;word-spacing:0px;stroke-width:0.264583"
           x="13.721661"
           y="169.71729"
           id="text878"><tspan
             sodipodi:role="line"
             id="tspan876"
             style="font-size:50.8px;stroke-width:0.264583"
             x="13.721661"
             y="169.71729">42</tspan></text>
      </g>
      <g
         id="g900"
         transform="translate(106.96726,101.60222)">
        <g
           id="g892"
           transform="rotate(-15,322.38026,175.83356)">
          <path
             id="path884"
             style="fill:#ffcc00;stroke-width:5.55806;stroke-linecap:round"
             d="m 37.488281,322.42188 c -13.85,0 -25,11.14999 -25,25 v 50 c 0,13.85 11.15,25 25,25 H 187.48828 c 25.76524,0 78.72266,-28.33057 78.72266,-50 0,-21.66943 -53.5735,-50 -78.72266,-50 z M 235.3418,359.4668 A 12.953708,12.953708 0 0 1 248.29492,372.42188 12.953708,12.953708 0 0 1 235.3418,385.375 12.953708,12.953708 0 0 1 222.38672,372.42188 12.953708,12.953708 0 0 1 235.3418,359.4668 Z"
             transform="scale(0.26458333)" />
          <rect
             style="fill:#ffffff;stroke-width:1.24782;stroke-linecap:round"
             id="rect886"
             width="47.625"
             height="21.166666"
             x="5.9498496"
             y="87.953148"
             ry="5.2916665" />
          <text
             xml:space="preserve"
             style="font-size:14.1111px;line-height:1.25;font-family:sans-serif;letter-spacing:0px;word-spacing:0px;fill:#0066ff;fill-opacity:1;stroke-width:0.264583"
             x="9.9488001"
             y="102.74146"
             id="text890"><tspan
               sodipodi:role="line"
               id="tspan888"
               style="font-size:14.1111px;fill:#0066ff;fill-opacity:1;stroke-width:0.264583"
               x="9.9488001"
               y="102.74146">result</tspan></text>
        </g>
        <text
           xml:space="preserve"
           style="font-size:50.8px;line-height:1.25;font-family:sans-serif;letter-spacing:0px;word-spacing:0px;stroke-width:0.264583"
           x="41.254311"
           y="169.71729"
           id="text896"><tspan
             sodipodi:role="line"
             id="tspan894"
             style="font-size:50.8px;stroke-width:0.264583"
             x="41.254311"
             y="169.71729">36</tspan></text>
        <path
           id="path898"
           style="fill:#ffcc00;stroke-width:1.47057;stroke-linecap:round"
           d="m 50.218638,160.29861 v 4.89014 a 3.4273352,3.4273352 0 0 1 0.01913,-0.007 3.4273352,3.4273352 0 0 1 4.197159,2.42414 3.4273352,3.4273352 0 0 1 -2.423107,4.19716 3.4273352,3.4273352 0 0 1 -1.793174,-0.0191 v 8.24859 c 5.151263,-4.14288 9.76485,-10.03513 8.79533,-13.65342 -0.68453,-2.5547 -4.38186,-4.68907 -8.79533,-6.08025 z" />
      </g>
      <g
         id="g9312"
         transform="translate(38.454013,-5.6653672)">
        <g
           id="g9304"
           transform="rotate(-15,290.13168,159.59136)">
          <path
             id="path9290"
             style="fill:#ffcc00;stroke-width:5.55806;stroke-linecap:round"
             d="m 37.488281,322.42188 c -13.85,0 -25,11.14999 -25,25 v 50 c 0,13.85 11.15,25 25,25 H 187.48828 c 25.76524,0 78.72266,-28.33057 78.72266,-50 0,-21.66943 -53.5735,-50 -78.72266,-50 z M 235.3418,359.4668 A 12.953708,12.953708 0 0 1 248.29492,372.42188 12.953708,12.953708 0 0 1 235.3418,385.375 12.953708,12.953708 0 0 1 222.38672,372.42188 12.953708,12.953708 0 0 1 235.3418,359.4668 Z"
             transform="scale(0.26458333)" />
          <rect
             style="fill:#ffffff;stroke-width:1.24782;stroke-linecap:round"
             id="rect9292"
             width="47.625"
             height="21.166666"
             x="5.9498496"
             y="87.953148"
             ry="5.2916665" />
          <text
             xml:space="preserve"
             style="font-size:14.1111px;line-height:1.25;font-family:sans-serif;letter-spacing:0px;word-spacing:0px;fill:#0066ff;fill-opacity:1;stroke-width:0.264583"
             x="9.9488001"
             y="102.74146"
             id="text9296"><tspan
               sodipodi:role="line"
               id="tspan9294"
               style="font-size:14.1111px;fill:#0066ff;fill-opacity:1;stroke-width:0.264583"
               x="9.9488001"
               y="102.74146">result</tspan></text>
        </g>
        <text
           xml:space="preserve"
           style="font-size:50.8px;line-height:1.25;font-family:sans-serif;letter-spacing:0px;word-spacing:0px;stroke-width:0.264583"
           x="41.254311"
           y="169.71729"
           id="text9308"><tspan
             sodipodi:role="line"
             id="tspan9306"
             style="font-size:50.8px;stroke-width:0.264583"
             x="41.254311"
             y="169.71729">42</tspan></text>
        <path
           id="path9310"
           style="fill:#ffcc00;stroke-width:1.47057;stroke-linecap:round"
           d="m 53.323584,151.39862 v 4.89014 a 3.4273352,3.4273352 0 0 1 0.01913,-0.007 3.4273352,3.4273352 0 0 1 4.197159,2.42414 3.4273352,3.4273352 0 0 1 -2.423107,4.19716 3.4273352,3.4273352 0 0 1 -1.793174,-0.0191 v 8.24859 c 5.151263,-4.14288 9.76485,-10.03513 8.79533,-13.65342 -0.68453,-2.5547 -4.38186,-4.68907 -8.79533,-6.08025 z" />
      </g>
      <path
         style="fill:none;stroke:#000000;stroke-width:2.64583;stroke-linecap:butt;stroke-linejoin:miter;stroke-miterlimit:4;stroke-dasharray:none;stroke-opacity:1;marker-end:url(#TriangleOutM)"
         d="m 106.66007,177.69713 v 38.92179"
         id="path9471" />
    </g>
  </g>
</svg>
